<mxfile host="Electron" agent="Mozilla/5.0 (Macintosh; Intel Mac OS X 10_15_7) AppleWebKit/537.36 (KHTML, like Gecko) draw.io/28.0.4 Chrome/138.0.7204.97 Electron/37.2.1 Safari/537.36" version="28.0.4" pages="1">
  <diagram id="a9696565446f41d7" name="Use Cases Table Graph Td">
    <mxGraphModel dx="706" dy="604" grid="1" gridSize="10" guides="1" tooltips="1" connect="1" arrows="1" fold="1" page="1" pageScale="1" pageWidth="827" pageHeight="1169" math="0" shadow="0">
      <root>
        <mxCell id="0" />
        <mxCell id="1" parent="0" />
        <UserObject label="" mermaidData="{&quot;data&quot;:&quot;graph TD\n    %% VM Lifecycle Foundation\n    VMImport[VM Import and Migration]\n    VMTemplate[VM Template Management]\n    VMScale[VM Scaling and Performance]\n    VMBackup[VM Backup and Recovery]\n    \n    %% Observability Foundation\n    Observability[End-to-End Observability]\n    \n    %% Application and Platform Services\n    HybridApps[Hybrid Applications]\n    DatabasePaaS[Database Services as PaaS]\n    MultiEnv[Multi-Environment Application Setup]\n    \n    %% Security\n    WAF[WAF and Firewalling]\n    \n    %% Enterprise Integration\n    EventPublish[Event Publishing to CMDB/SIEM]\n    DisasterRecovery[Disaster Recovery]\n    LegacyMod[Legacy Application Modernization]\n    \n    %% VM Lifecycle Dependencies\n    VMImport --&gt; VMTemplate\n    VMTemplate --&gt; VMScale\n    VMTemplate --&gt; VMBackup\n    VMScale --&gt; DisasterRecovery\n    VMBackup --&gt; DisasterRecovery\n    \n    %% Platform Dependencies\n    VMTemplate --&gt; MultiEnv\n    VMScale --&gt; HybridApps\n    VMBackup --&gt; HybridApps\n    \n    %% Observability Dependencies\n    VMScale --&gt; Observability\n    HybridApps --&gt; Observability\n    Observability --&gt; WAF\n    Observability --&gt; EventPublish\n    \n    %% Advanced Services Dependencies\n    HybridApps --&gt; DatabasePaaS\n    MultiEnv --&gt; DatabasePaaS\n    Observability --&gt; DatabasePaaS\n    \n    %% Enterprise Integration Dependencies\n    DisasterRecovery --&gt; EventPublish\n    DatabasePaaS --&gt; EventPublish\n    \n    %% Legacy Modernization Dependencies\n    HybridApps --&gt; LegacyMod\n    DatabasePaaS --&gt; LegacyMod\n    EventPublish --&gt; LegacyMod\n    DisasterRecovery --&gt; LegacyMod\n    \n    %% Styling by Category and Complexity\n    classDef vmLifecycle fill:#e1f5fe,stroke:#01579b,stroke-width:2px,color:#000\n    classDef observability fill:#f3e5f5,stroke:#4a148c,stroke-width:2px,color:#000\n    classDef application fill:#e8f5e8,stroke:#1b5e20,stroke-width:2px,color:#000\n    classDef security fill:#fff3e0,stroke:#e65100,stroke-width:2px,color:#000\n    classDef enterprise fill:#fce4ec,stroke:#880e4f,stroke-width:2px,color:#000\n    classDef paas fill:#f1f8e9,stroke:#33691e,stroke-width:2px,color:#000\n    \n    class VMImport,VMTemplate,VMScale,VMBackup vmLifecycle\n    class Observability observability\n    class HybridApps,MultiEnv application\n    class WAF security\n    class DisasterRecovery,EventPublish,LegacyMod enterprise\n    class DatabasePaaS paas&quot;}" id="da0552d56dda4922">
          <mxCell style="shape=image;noLabel=1;verticalAlign=top;imageAspect=1;image=data:image/svg+xml,PHN2ZyB3aWR0aD0iMjAwIiBoZWlnaHQ9IjIwMCIgeG1sbnM9Imh0dHA6Ly93d3cudzMub3JnLzIwMDAvc3ZnIj48cmVjdCB3aWR0aD0iMjAwIiBoZWlnaHQ9IjIwMCIgZmlsbD0iI2Y5ZjlmOSIgc3Ryb2tlPSIjY2NjIi8+PHRleHQgeD0iMTAwIiB5PSIxMDAiIHRleHQtYW5jaG9yPSJtaWRkbGUiIGZvbnQtZmFtaWx5PSJBcmlhbCIgZm9udC1zaXplPSIxNCIgZmlsbD0iIzMzMyI+TWVybWFpZCBEaWFncmFtPC90ZXh0Pjwvc3ZnPg==;" vertex="1" parent="1">
            <mxGeometry x="260" y="130" width="200" height="200" as="geometry" />
          </mxCell>
        </UserObject>
      </root>
    </mxGraphModel>
  </diagram>
</mxfile>